<svg width="28" height="29" viewBox="0 0 28 29" fill="none" xmlns="http://www.w3.org/2000/svg">
<path d="M10.5 23C9.05106 22.9938 7.8762 21.9695 7.86188 20.7H13.1119C13.1146 21.0075 13.0477 21.3124 12.915 21.597C12.5707 22.2893 11.8674 22.7943 11.025 22.954H11.0184H10.9987H10.9751H10.9633C10.8108 22.9818 10.6557 22.9972 10.5 23ZM21 19.55H0V17.25L2.625 16.1V9.775C2.55585 8.15249 2.97404 6.54249 3.83775 5.106C4.69749 3.77374 6.16704 2.82771 7.875 2.507V0H13.125V2.507C16.5099 3.2131 18.375 5.7937 18.375 9.775V16.1L21 17.25V19.55Z" fill="#B1CEFF"/>
<circle cx="21" cy="22" r="7" fill="#FFCF27"/>
<path d="M22.3022 26H20.75V20.0166L18.897 20.5913V19.3291L22.1357 18.1689H22.3022V26Z" fill="white"/>
</svg>
