<svg width="17" height="12" viewBox="0 0 17 12" fill="none" xmlns="http://www.w3.org/2000/svg">
<path d="M3.15503 8.41696V5.92114L8.20124 8.22704C8.4652 8.34765 8.76853 8.34765 9.03248 8.22704L14.0787 5.92114V8.41696C14.0787 9.91445 11.7947 10.9128 8.61686 10.9128C5.43907 10.9128 3.15503 9.91445 3.15503 8.41696Z" fill="#525354"/>
<path fill-rule="evenodd" clip-rule="evenodd" d="M0.672372 2.92628L8.2641 0.064284C8.49146 -0.0214279 8.74225 -0.021428 8.96961 0.0642838L16.5613 2.92628C16.8924 3.09267 17.3558 3.52527 16.5613 3.9246C16.4231 3.99407 16.1627 4.1149 15.8146 4.27236C15.7511 4.20281 15.6807 4.1419 15.6055 4.08961C15.336 3.90222 15.0301 3.84027 14.8128 3.83593L10.1502 3.42652C9.8751 3.40237 9.63252 3.60578 9.60837 3.88087C9.58422 4.15595 9.78763 4.39853 10.0627 4.42269L14.587 4.81995C12.9028 5.5643 10.5661 6.57779 9.01536 7.24692C8.76044 7.35691 8.47251 7.35526 8.21837 7.24348L0.672372 3.9246C-0.320688 3.42544 -0.122076 3.22578 0.672372 2.92628ZM14.587 4.81995L14.7443 4.83376C14.7588 4.83504 14.7734 4.83568 14.788 4.83568C14.8533 4.83568 14.9597 4.85858 15.0345 4.9106C15.0668 4.933 15.0893 4.95794 15.1051 4.98745C15.1204 5.01615 15.1392 5.0676 15.1392 5.15783V5.1617V5.16559V5.16951V5.17345V5.17743V5.18142V5.18545V5.1895V5.19357V5.19767V5.20179V5.20595V5.21012V5.21432V5.21855V5.2228V5.22707V5.23137V5.2357V5.24005V5.24442V5.24882V5.25324V5.25769V5.26216V5.26665V5.27117V5.27571V5.28028V5.28487V5.28948V5.29412V5.29878V5.30346V5.30817V5.3129V5.31765V5.32242V5.32722V5.33204V5.33688V5.34175V5.34663V5.35154V5.35647V5.36143V5.3664V5.3714V5.37642V5.38146V5.38652V5.39161V5.39671V5.40184V5.40699V5.41216V5.41735V5.42256V5.42779V5.43304V5.43831V5.44361V5.44892V5.45425V5.45961V5.46498V5.47038V5.47579V5.48123V5.48668V5.49215V5.49765V5.50316V5.50869V5.51424V5.51981V5.5254V5.53101V5.53664V5.54228V5.54795V5.55363V5.55934V5.56506V5.57079V5.57655V5.58233V5.58812V5.59393V5.59976V5.60561V5.61147V5.61735V5.62325V5.62917V5.6351V5.64105V5.64702V5.65301V5.65901V5.66503V5.67106V5.67712V5.68319V5.68927V5.69537V5.70149V5.70762V5.71377V5.71994V5.72612V5.73232V5.73853V5.74476V5.751V5.75726V5.76354V5.76983V5.77613V5.78245V5.78878V5.79513V5.8015V5.80788V5.81427V5.82068V5.8271V5.83354V5.83999V5.84645V5.85293V5.85942V5.86593V5.87244V5.87898V5.88552V5.89208V5.89866V5.90524V5.91184V5.91845V5.92508V5.93172V5.93837V5.94503V5.9517V5.95839V5.96509V5.97181V5.97853V5.98527V5.99201V5.99878V6.00555V6.01233V6.01913V6.02593V6.03275V6.03958V6.04642V6.05327V6.06013V6.06701V6.07389V6.08078V6.08769V6.09461V6.10153V6.10847V6.11541V6.12237V6.12934V6.13631V6.1433V6.1503V6.1573V6.16432V6.17134V6.17838V6.18542V6.19247V6.19953V6.2066V6.21368V6.22077V6.22787V6.23497V6.24209V6.24921V6.25634V6.26348V6.27062V6.27778V6.28494V6.29211V6.29929V6.30648V6.31367V6.32087V6.32808V6.33529V6.34251V6.34974V6.35698V6.36422V6.37147V6.37873V6.38599V6.39326V6.40054V6.40782V6.41511V6.4224V6.4297V6.43701V6.44432V6.45164V6.45896V6.46629V6.47363V6.48097V6.48831V6.49566V6.50302V6.51038V6.51774V6.52511V6.53249V6.53987V6.54725V6.55464V6.56203V6.56943V6.57683V6.58423V6.59164V6.59905V6.60647V6.61388V6.62131V6.62873V6.63616V6.6436V6.65103V6.65847V6.66591V6.67336V6.6808V6.68825V6.69571V6.70316V6.71062V6.71808V6.72554V6.733V6.74047V6.74794V6.75541V6.76288V6.77035V6.77783V6.7853V6.79278V6.80026V6.80774V6.81522V6.8227V6.83018V6.83766V6.84515V6.85263V6.86011V6.8676V6.87508V6.88257V6.89006V6.89754V6.90503V6.91251V6.92V6.92748V6.93496V6.94245V6.94993V6.95741V6.96489V6.97237V6.97985V6.98733V6.9948V7.00228V7.00975V7.01722V7.02469V7.03216V7.03963V7.04709V7.05456V7.06202V7.06947V7.07693V7.08438V7.09183V7.09928V7.10673V7.11417V7.12161V7.12905V7.13648V7.14391V7.15134V7.15876V7.16619V7.1736V7.18102V7.18843V7.19583V7.20323V7.21063V7.21802V7.22541V7.2328V7.24018V7.24756V7.25493V7.26229V7.26966V7.27701V7.28437V7.29171V7.29905V7.30639V7.31372V7.32105V7.32837V7.33568V7.34299V7.35029V7.35759V7.36488V7.37217V7.37944V7.38672V7.39398V7.40124V7.40849V7.41574V7.42298V7.43021V7.43743V7.44465V7.45186V7.45907V7.46626V7.47345V7.48063V7.48781V7.49497V7.50213V7.50928V7.51642V7.52355V7.53068V7.5378V7.54491V7.552V7.5591V7.56618V7.57325V7.58032V7.58737V7.59442V7.60146V7.60849V7.6155V7.62251V7.62951V7.6365V7.64348V7.65045V7.65742V7.66437V7.67131V7.67824V7.68516V7.69206V7.69896V7.70585V7.71273V7.7196V7.72645V7.7333V7.74013V7.74695V7.75376V7.76056V7.76735V7.77413V7.78089V7.78764V7.79438V7.80111V7.80783V7.81454V7.82123V7.82791V7.83458V7.84123V7.84787V7.8545V7.86112V7.86773V7.87432V7.88089V7.88746V7.89401V7.90055V7.90707V7.91358V7.92008V7.92656V7.93303V7.93949V7.94593V7.95236V7.95877V7.96517V7.97155V7.97792V7.98428V7.99062V7.99694V8.00326V8.00955V8.01583V8.0221V8.02835V8.03458V8.0408V8.047V8.05319V8.05936V8.06552V8.07166V8.07778V8.08389V8.08487C15.1219 8.09525 15.1048 8.10633 15.0877 8.11815C14.8703 8.26939 14.7136 8.52268 14.7136 8.85751L14.7136 8.86764C14.7136 9.20794 14.7134 10.2121 15.1952 11.1427L15.6392 12.0005L16.0833 11.1427C16.565 10.2121 16.5649 9.20796 16.5648 8.86765V8.86764L16.5648 8.85751C16.5648 8.51018 16.423 8.22002 16.15 8.06015L16.1392 8.05392V8.05319V8.047V8.0408V8.03458V8.02835V8.0221V8.01583V8.00955V8.00326V7.99694V7.99062V7.98428V7.97792V7.97155V7.96517V7.95877V7.95236V7.94593V7.93949V7.93303V7.92656V7.92008V7.91358V7.90707V7.90055V7.89401V7.88746V7.88089V7.87432V7.86773V7.86112V7.8545V7.84787V7.84123V7.83458V7.82791V7.82123V7.81454V7.80783V7.80111V7.79438V7.78764V7.78089V7.77413V7.76735V7.76056V7.75376V7.74695V7.74013V7.7333V7.72645V7.7196V7.71273V7.70585V7.69896V7.69206V7.68516V7.67824V7.67131V7.66437V7.65742V7.65045V7.64348V7.6365V7.62951V7.62251V7.6155V7.60849V7.60146V7.59442V7.58737V7.58032V7.57325V7.56618V7.5591V7.552V7.54491V7.5378V7.53068V7.52355V7.51642V7.50928V7.50213V7.49497V7.48781V7.48063V7.47345V7.46626V7.45907V7.45186V7.44465V7.43743V7.43021V7.42298V7.41574V7.40849V7.40124V7.39398V7.38672V7.37944V7.37217V7.36488V7.35759V7.35029V7.34299V7.33568V7.32837V7.32105V7.31372V7.30639V7.29905V7.29171V7.28437V7.27701V7.26966V7.26229V7.25493V7.24756V7.24018V7.2328V7.22541V7.21802V7.21063V7.20323V7.19583V7.18843V7.18102V7.1736V7.16619V7.15876V7.15134V7.14391V7.13648V7.12905V7.12161V7.11417V7.10673V7.09928V7.09183V7.08438V7.07693V7.06947V7.06202V7.05456V7.04709V7.03963V7.03216V7.02469V7.01722V7.00975V7.00228V6.9948V6.98733V6.97985V6.97237V6.96489V6.95741V6.94993V6.94245V6.93496V6.92748V6.92V6.91251V6.90503V6.89754V6.89006V6.88257V6.87508V6.8676V6.86011V6.85263V6.84515V6.83766V6.83018V6.8227V6.81522V6.80774V6.80026V6.79278V6.7853V6.77783V6.77035V6.76288V6.75541V6.74794V6.74047V6.733V6.72554V6.71808V6.71062V6.70316V6.69571V6.68825V6.6808V6.67336V6.66591V6.65847V6.65103V6.6436V6.63616V6.62873V6.62131V6.61388V6.60647V6.59905V6.59164V6.58423V6.57683V6.56943V6.56203V6.55464V6.54725V6.53987V6.53249V6.52511V6.51774V6.51038V6.50302V6.49566V6.48831V6.48097V6.47363V6.46629V6.45896V6.45164V6.44432V6.43701V6.4297V6.4224V6.41511V6.40782V6.40054V6.39326V6.38599V6.37873V6.37147V6.36422V6.35698V6.34974V6.34251V6.33529V6.32808V6.32087V6.31367V6.30648V6.29929V6.29211V6.28494V6.27778V6.27062V6.26348V6.25634V6.24921V6.24209V6.23497V6.22787V6.22077V6.21368V6.2066V6.19953V6.19247V6.18542V6.17838V6.17134V6.16432V6.1573V6.1503V6.1433V6.13631V6.12934V6.12237V6.11541V6.10847V6.10153V6.09461V6.08769V6.08078V6.07389V6.06701V6.06013V6.05327V6.04642V6.03958V6.03275V6.02593V6.01913V6.01233V6.00555V5.99878V5.99201V5.98527V5.97853V5.97181V5.96509V5.95839V5.9517V5.94503V5.93837V5.93172V5.92508V5.91845V5.91184V5.90524V5.89866V5.89208V5.88552V5.87898V5.87244V5.86593V5.85942V5.85293V5.84645V5.83999V5.83354V5.8271V5.82068V5.81427V5.80788V5.8015V5.79513V5.78878V5.78245V5.77613V5.76983V5.76354V5.75726V5.751V5.74476V5.73853V5.73232V5.72612V5.71994V5.71377V5.70762V5.70149V5.69537V5.68927V5.68319V5.67712V5.67106V5.66503V5.65901V5.65301V5.64702V5.64105V5.6351V5.62917V5.62325V5.61735V5.61147V5.60561V5.59976V5.59393V5.58812V5.58233V5.57655V5.57079V5.56506V5.55934V5.55363V5.54795V5.54228V5.53664V5.53101V5.5254V5.51981V5.51424V5.50869V5.50316V5.49765V5.49215V5.48668V5.48123V5.47579V5.47038V5.46498V5.45961V5.45425V5.44892V5.44361V5.43831V5.43304V5.42779V5.42256V5.41735V5.41216V5.40699V5.40184V5.39671V5.39161V5.38652V5.38146V5.37642V5.3714V5.3664V5.36143V5.35647V5.35154V5.34663V5.34175V5.33688V5.33204V5.32722V5.32242V5.31765V5.3129V5.30817V5.30346V5.29878V5.29412V5.28948V5.28487V5.28028V5.27571V5.27117V5.26665V5.26216V5.25769V5.25324V5.24882V5.24442V5.24005V5.2357V5.23137V5.22707V5.2228V5.21855V5.21432V5.21012V5.20595V5.20179V5.19767V5.19357V5.1895V5.18545V5.18142V5.17743V5.17345V5.16951V5.16559V5.1617V5.15783C16.1392 4.78118 16.0097 4.48603 15.8146 4.27236C15.4773 4.42495 15.0576 4.61194 14.587 4.81995Z" fill="#525354"/>
</svg>
