<svg width="14" height="14" viewBox="0 0 14 14" fill="none" xmlns="http://www.w3.org/2000/svg">
<path d="M13.8284 5.46171C13.1096 2.26819 10.2739 -0.00038201 7.00143 7.98345e-07C4.12894 -0.00136637 1.54735 1.75334 0.49081 4.42526C-0.565732 7.09718 0.11738 10.1436 2.2136 12.1081C4.30982 14.0727 7.39331 14.5563 9.99004 13.3278C9.99192 13.327 9.99395 13.3274 9.9958 13.3265C9.99758 13.3257 9.99859 13.324 10.0003 13.3232C12.9572 11.9206 14.5472 8.65521 13.8284 5.46171ZM10.5726 1.53386L9.25184 1.99632C9.22505 2.0058 9.20018 2.02008 9.1785 2.03848C8.90053 2.2595 8.64319 2.50529 8.40969 2.77287C8.25618 2.8826 8.08867 2.97127 7.91161 3.03651C7.12151 3.0921 6.15747 3.18622 5.96134 3.32225C5.72125 3.48951 5.68115 4.00743 5.68968 4.41257C5.69047 4.44831 5.69947 4.48339 5.71601 4.51511L6.35792 5.75013C6.46404 5.94834 6.70924 6.02515 6.90942 5.92286C6.9634 5.89573 7.01807 5.86522 7.07307 5.83446C7.0747 5.83355 7.07633 5.83264 7.07796 5.83173C7.12124 5.80754 7.16503 5.78308 7.21727 5.75628C7.29802 5.71573 7.39836 5.66627 7.44768 5.68041C7.46096 5.68451 7.47373 5.69017 7.48573 5.69728C7.46894 5.73818 7.443 5.77466 7.40987 5.80392C7.24381 5.98528 7.08002 6.16849 6.91578 6.35762L6.36623 6.99267C6.34756 7.01408 6.32897 7.03552 6.3021 7.06877C6.13787 7.29665 6.06814 7.57924 6.10745 7.85741L6.13036 8.01373C6.15332 8.17497 6.11133 8.33873 6.01361 8.469L5.55369 9.09196C5.51405 9.14359 5.47985 9.19918 5.45164 9.25785L4.96701 10.2666H4.58361C4.69311 10.1556 4.73693 9.9955 4.69921 9.84415L4.25465 8.04769C4.25151 8.02959 4.24725 8.01176 4.24131 7.99437L3.92023 7.131C3.90725 7.09578 3.90069 7.05849 3.90088 7.02094V6.97903C3.90214 6.67921 3.73238 6.40492 3.46351 6.27242L3.44301 6.26331C3.30866 6.19353 3.15653 6.16537 3.00611 6.18243L2.37592 6.25262C2.27415 6.26408 2.17344 6.22358 2.10789 6.14486L1.71221 5.67682C1.66342 5.61872 1.63657 5.54533 1.63636 5.46948V5.05637C1.63526 4.97224 1.66774 4.89114 1.72656 4.83101L2.23659 4.3158C2.28128 4.26995 2.32051 4.21912 2.35356 4.16427L2.51825 3.88446C2.57328 3.79018 2.6745 3.73257 2.78362 3.73339H3.45881C3.54787 3.73293 3.63261 3.77178 3.69037 3.83956C3.83809 4.0016 4.04699 4.09427 4.26624 4.09501H4.51453C4.61731 4.09501 4.70796 4.02771 4.73775 3.92933L4.95348 3.21772C4.97953 3.13148 4.9537 3.03794 4.88709 2.97732C4.75246 2.85542 4.64041 2.71072 4.55611 2.54986C4.40393 2.18162 3.73935 1.94352 3.55722 1.91481C3.43803 1.84688 3.32631 1.7666 3.22397 1.67528C5.41012 0.117058 8.32821 0.060922 10.5726 1.53386ZM3.88889 12.4444C1.91073 11.9236 0.470089 9.52194 0.470089 6.99992C0.470089 4.74721 1.34026 3.20484 2.84335 1.9655C3.26732 2.32069 3.40116 2.36663 3.49123 2.37658C3.73003 2.43425 3.94885 2.55533 4.12462 2.72704C4.20933 2.90888 4.32493 3.07463 4.46631 3.21695L4.34158 3.62825H4.2663C4.1797 3.62795 4.09709 3.59183 4.03805 3.52845C3.89178 3.36171 3.68064 3.26628 3.45889 3.26664H2.78371C2.50961 3.26694 2.25597 3.41172 2.11626 3.64761L1.95451 3.92263C1.94057 3.94566 1.92417 3.96712 1.90566 3.98667L1.39539 4.5021C1.24961 4.6495 1.16846 4.84889 1.16988 5.05626V5.46937C1.17031 5.65498 1.23581 5.83454 1.35496 5.97681L1.75179 6.44599C1.91816 6.6436 2.17224 6.74499 2.42892 6.71623L3.05763 6.64628C3.12015 6.63928 3.18332 6.65186 3.2384 6.6823L3.26128 6.69277C3.36866 6.74754 3.43574 6.85842 3.4344 6.97897V7.02089C3.43421 7.11479 3.45094 7.20797 3.48382 7.29591L3.79829 8.14104C3.7993 8.14583 3.80023 8.15014 3.80091 8.15266L4.24386 9.94617L4.19954 9.98902C4.07107 10.1288 4.04103 10.3329 4.1238 10.5038C4.19482 10.6442 4.33865 10.7329 4.49603 10.7332H4.96699C5.13669 10.7334 5.29168 10.6368 5.3663 10.4844L5.8719 9.46039C5.88726 9.42894 5.9058 9.39916 5.92725 9.37152L6.38786 8.74741C6.55917 8.51873 6.63267 8.23138 6.59219 7.94851L6.56928 7.79175C6.54692 7.63784 6.58352 7.48116 6.67179 7.35311L6.71758 7.29957C6.7357 7.27885 6.75379 7.25809 6.76782 7.241L7.26827 6.66316C7.42944 6.4779 7.59081 6.29714 7.75233 6.12085C7.8989 5.99447 7.97028 5.80162 7.9413 5.61024C7.89879 5.4301 7.76291 5.28666 7.58537 5.23449C7.38158 5.19216 7.16935 5.23211 6.99492 5.34569C6.94492 5.37145 6.89493 5.39923 6.84526 5.42704C6.81145 5.44594 6.77782 5.46486 6.74458 5.48263L6.1555 4.34925C6.147 4.13159 6.17404 3.91402 6.23557 3.70509C6.81191 3.59654 7.39503 3.52785 7.98083 3.49955C8.0048 3.4978 8.02839 3.49241 8.05075 3.48361C8.33641 3.37013 8.69882 3.19787 8.8019 3.02424C9.00301 2.80935 9.21847 2.60837 9.4468 2.42268L11.0346 1.86682C12.1715 2.76024 12.9806 4.00513 13.3356 5.40705L13.2507 5.36254C13.0926 5.27879 12.9122 5.24668 12.7349 5.27072L11.5318 5.42909C11.3077 5.45488 11.1388 5.64502 11.1395 5.87069V6.08533H10.8969C10.7423 6.08626 10.5986 6.16575 10.5156 6.29634L10.4378 6.41892C10.2381 6.73687 10.1881 7.12652 10.3009 7.48463L10.4855 8.07913L10.3221 8.13565C10.2029 8.17776 10.1071 8.26843 10.0584 8.38516C10.011 8.50017 10.0144 8.62986 10.0678 8.74221L10.6092 9.89132L10.2656 9.89542L9.6142 9.37568C9.49841 9.28782 9.34776 9.26026 9.20838 9.30138L8.24743 9.59122C8.10149 9.63716 7.98919 9.7546 7.94977 9.90248C7.91038 10.0503 7.94936 10.2081 8.0531 10.3206L8.18672 10.4637C8.23565 10.5136 8.29527 10.5518 8.36109 10.5753L8.75314 10.7007V11.1345C8.75401 11.2002 8.76795 11.265 8.79414 11.3252L9.58372 12.9998C8.8428 13.3192 7.56397 13.4661 6.76782 13.0641C6.22262 12.7888 7.28533 11.2337 6.76782 10.937C6.43116 10.7441 5.75418 11.7787 5.44444 11.6667C5.03189 11.5175 4.2726 12.5455 3.88889 12.4444ZM10.0047 12.7986L9.2197 11.1345V10.7006C9.22002 10.5106 9.10046 10.341 8.92141 10.2775L8.52264 10.1401L8.41729 10.0271L9.32857 9.74429L9.97301 10.2586C10.0533 10.3226 10.1528 10.3574 10.2555 10.3575H10.6379C10.791 10.3583 10.934 10.281 11.0171 10.1524C11.0995 10.0248 11.1109 9.86395 11.0472 9.72606L10.5012 8.56738L10.6614 8.51201C10.8858 8.43208 11.0075 8.18971 10.9377 7.96194L10.746 7.34466C10.6742 7.11714 10.7059 6.86957 10.8327 6.66745L10.8969 6.55192H11.1581C11.4041 6.55293 11.6045 6.35458 11.6061 6.10849V5.88997L12.7984 5.73296C12.8798 5.72186 12.9626 5.73703 13.0348 5.77624L13.1279 5.82502C13.2257 5.87534 13.3321 5.90675 13.4415 5.91758C13.9144 8.71495 12.5249 11.4971 10.0047 12.7986Z" fill="#5A5B5C"/>
<path d="M10.5726 1.53386L9.25184 1.99632C9.22505 2.0058 9.20018 2.02008 9.1785 2.03848C8.90053 2.2595 8.64319 2.50529 8.40969 2.77287C8.25618 2.8826 8.08867 2.97127 7.91161 3.03651C7.12151 3.0921 6.15747 3.18622 5.96134 3.32225C5.72125 3.48951 5.68115 4.00743 5.68968 4.41257C5.69047 4.44831 5.69947 4.48339 5.71601 4.51511L6.35792 5.75013C6.46404 5.94834 6.70924 6.02515 6.90942 5.92286C6.9634 5.89573 7.01807 5.86522 7.07307 5.83446L7.07796 5.83173C7.12124 5.80754 7.16503 5.78308 7.21727 5.75628C7.29802 5.71573 7.39836 5.66627 7.44768 5.68041C7.46096 5.68451 7.47373 5.69017 7.48573 5.69728C7.46894 5.73818 7.443 5.77466 7.40987 5.80392C7.24381 5.98528 7.08002 6.16849 6.91578 6.35762L6.36623 6.99267C6.34756 7.01408 6.32897 7.03552 6.3021 7.06877C6.13787 7.29665 6.06814 7.57924 6.10745 7.85741L6.13036 8.01373C6.15332 8.17497 6.11133 8.33873 6.01361 8.469L5.55369 9.09196C5.51405 9.14359 5.47985 9.19918 5.45164 9.25785L4.96701 10.2666H4.58361C4.69311 10.1556 4.73693 9.9955 4.69921 9.84415L4.25465 8.04769C4.25151 8.02959 4.24725 8.01176 4.24131 7.99437L3.92023 7.131C3.90725 7.09578 3.90069 7.05849 3.90088 7.02094V6.97903C3.90214 6.67921 3.73238 6.40492 3.46351 6.27242L3.44301 6.26331C3.30866 6.19353 3.15653 6.16537 3.00611 6.18243L2.37592 6.25262C2.27415 6.26408 2.17344 6.22358 2.10789 6.14486L1.71221 5.67682C1.66342 5.61872 1.63657 5.54533 1.63636 5.46948V5.05637C1.63526 4.97224 1.66774 4.89114 1.72656 4.83101L2.23659 4.3158C2.28128 4.26995 2.32051 4.21912 2.35356 4.16427L2.51825 3.88446C2.57328 3.79018 2.6745 3.73257 2.78362 3.73339H3.45881C3.54787 3.73293 3.63261 3.77178 3.69037 3.83956C3.83809 4.0016 4.04699 4.09427 4.26624 4.09501H4.51453C4.61731 4.09501 4.70796 4.02771 4.73775 3.92933L4.95348 3.21772C4.97953 3.13148 4.9537 3.03794 4.88709 2.97732C4.75246 2.85542 4.64041 2.71072 4.55611 2.54986C4.40393 2.18162 3.73935 1.94352 3.55722 1.91481C3.43803 1.84688 3.32631 1.7666 3.22397 1.67528C5.41012 0.117058 8.32821 0.060922 10.5726 1.53386Z" fill="#5A5B5C"/>
<path d="M10.0047 12.7986L9.2197 11.1345V10.7006C9.22002 10.5106 9.10046 10.341 8.92141 10.2775L8.52264 10.1401L8.41729 10.0271L9.32857 9.74429L9.97301 10.2586C10.0533 10.3226 10.1528 10.3574 10.2555 10.3575H10.6379C10.791 10.3583 10.934 10.281 11.0171 10.1524C11.0995 10.0248 11.1109 9.86395 11.0472 9.72606L10.5012 8.56738L10.6614 8.51201C10.8858 8.43208 11.0075 8.18971 10.9377 7.96194L10.746 7.34466C10.6742 7.11714 10.7059 6.86957 10.8327 6.66745L10.8969 6.55192H11.1581C11.4041 6.55293 11.6045 6.35458 11.6061 6.10849V5.88997L12.7984 5.73296C12.8798 5.72186 12.9626 5.73703 13.0348 5.77624L13.1279 5.82502C13.2257 5.87534 13.3321 5.90675 13.4415 5.91758C13.9144 8.71495 12.5249 11.4971 10.0047 12.7986Z" fill="#5A5B5C"/>
</svg>
