<svg width="15" height="15" viewBox="0 0 15 15" fill="none" xmlns="http://www.w3.org/2000/svg">
<path d="M1 6.67713V6.20691H3.5V6.67713C3.5 7.0533 3.22222 7.14735 3.08333 7.14735V11.3793H1.41667V7.14735C1.08333 7.14735 1 6.83387 1 6.67713Z" fill="#505152"/>
<path d="M4.5 6.67713V6.20691H7V6.67713C7 7.0533 6.72222 7.14735 6.58333 7.14735V11.3793H4.91667V7.14735C4.58333 7.14735 4.5 6.83387 4.5 6.67713Z" fill="#505152"/>
<path d="M8 6.67713V6.20691H10.5V6.67713C10.5 7.0533 10.2222 7.14735 10.0833 7.14735V11.3793H8.41667V7.14735C8.08333 7.14735 8 6.83387 8 6.67713Z" fill="#505152"/>
<path d="M11.5 6.67713V6.20691H14V6.67713C14 7.0533 13.7222 7.14735 13.5833 7.14735V11.3793H11.9167V7.14735C11.5833 7.14735 11.5 6.83387 11.5 6.67713Z" fill="#505152"/>
<rect y="13.4483" width="15" height="1.55172" rx="0.3" fill="#505152"/>
<rect x="1" y="12.4138" width="13" height="1.03448" rx="0.3" fill="#505152"/>
<path fill-rule="evenodd" clip-rule="evenodd" d="M0 4.13793V5.17241H15V4.13793L7.5 0L0 4.13793ZM7.5 4.13793C8.05229 4.13793 8.5 3.67478 8.5 3.10345C8.5 2.53212 8.05229 2.06897 7.5 2.06897C6.94772 2.06897 6.5 2.53212 6.5 3.10345C6.5 3.67478 6.94772 4.13793 7.5 4.13793Z" fill="#505152"/>
</svg>
