<svg width="231" height="35" viewBox="0 0 231 35" fill="none" xmlns="http://www.w3.org/2000/svg">
<path d="M10.7611 26.0048C8.69777 26.0048 6.68204 25.7354 4.71394 25.1966C2.74583 24.6578 1.17452 23.9764 0 23.1524L2.28554 18.636C3.42832 19.3967 4.79329 20.0147 6.38048 20.4901C7.99941 20.9338 9.58659 21.1557 11.142 21.1557C14.6973 21.1557 16.475 20.2207 16.475 18.3508C16.475 17.4633 16.0147 16.8453 15.0941 16.4967C14.2053 16.148 12.761 15.8152 10.7611 15.4983C8.66602 15.1814 6.95186 14.8169 5.61863 14.4049C4.31714 13.9928 3.17437 13.2797 2.19031 12.2655C1.238 11.2196 0.761848 9.77756 0.761848 7.93931C0.761848 5.53058 1.76177 3.6131 3.76162 2.18688C5.79322 0.728958 8.52317 0 11.9515 0C13.6974 0 15.4433 0.206009 17.1892 0.61803C18.9351 0.998356 20.3636 1.5213 21.4746 2.18688L19.189 6.70325C17.0305 5.4355 14.6021 4.80162 11.9039 4.80162C10.158 4.80162 8.82474 5.07102 7.90417 5.60981C7.01535 6.11692 6.57094 6.79834 6.57094 7.65407C6.57094 8.60489 7.04709 9.28631 7.99941 9.69833C8.98346 10.0787 10.4913 10.4431 12.5229 10.7918C14.5545 11.1087 16.221 11.4732 17.5225 11.8852C18.824 12.2972 19.935 12.9945 20.8556 13.977C21.8079 14.9595 22.2841 16.354 22.2841 18.1606C22.2841 20.5376 21.2524 22.4393 19.189 23.8655C17.1257 25.2917 14.3164 26.0048 10.7611 26.0048ZM38.5995 26.0048C35.9648 26.0048 33.5998 25.4502 31.5048 24.3409C29.4097 23.2316 27.7749 21.6945 26.6004 19.7294C25.4259 17.7327 24.8386 15.4825 24.8386 12.9786C24.8386 10.4748 25.4259 8.24041 26.6004 6.27539C27.7749 4.31037 29.3938 2.77321 31.4572 1.66393C33.5522 0.554642 35.933 0 38.5995 0C41.1072 0 43.2975 0.507101 45.1704 1.52131C47.075 2.53551 48.5035 3.99343 49.4558 5.89506L44.8847 8.55735C44.1546 7.38467 43.2341 6.51309 42.123 5.9426C41.0437 5.34042 39.8534 5.03933 38.5519 5.03933C36.3298 5.03933 34.4887 5.76828 33.0285 7.2262C31.5683 8.65243 30.8382 10.5699 30.8382 12.9786C30.8382 15.3874 31.5524 17.3207 32.9809 18.7786C34.4411 20.2048 36.2981 20.918 38.5519 20.918C39.8534 20.918 41.0437 20.6327 42.123 20.0622C43.2341 19.46 44.1546 18.5726 44.8847 17.3999L49.4558 20.0622C48.4718 21.9639 47.0274 23.4376 45.1228 24.4835C43.2499 25.4977 41.0755 26.0048 38.5995 26.0048ZM131.01 0C134.217 0 136.756 0.934969 138.629 2.80491C140.502 4.64315 141.438 7.41636 141.438 11.1245V26.1299H135.486V11.8852C135.486 9.66663 134.994 8.0027 134.01 6.89342C133.026 5.75244 131.614 5.18195 129.772 5.18195C127.773 5.18195 126.17 5.84752 124.963 7.17866C123.757 8.47811 123.154 10.348 123.154 12.7885V26.1299H117.202V11.8852C117.202 9.66663 116.71 8.0027 115.726 6.89342C114.742 5.75244 113.329 5.18195 111.488 5.18195C109.456 5.18195 107.838 5.83167 106.631 7.13112C105.457 8.43057 104.87 10.3164 104.87 12.7885V26.1299V26.1299C101.582 26.1299 98.9176 23.4651 98.9176 20.1779V0H101.894H104.87V3.51802C105.822 2.37704 106.727 1.50546 108.155 0.903275C109.583 0.301092 111.171 0 112.917 0C114.821 0 116.504 0.364478 117.964 1.09344C119.456 1.7907 120.63 2.8366 121.487 4.23113C122.535 2.89999 123.884 1.86994 125.535 1.14098C127.185 0.380326 129.011 0 131.01 0ZM161.67 0C164.146 0 166.352 0.538796 168.288 1.61639C170.257 2.69398 171.796 4.21528 172.907 6.1803C174.018 8.14533 174.574 10.4114 174.574 12.9786C174.574 15.5458 174.018 17.8278 172.907 19.8245C171.796 21.7895 170.257 23.3108 168.288 24.3884C166.352 25.466 164.134 26.1299 161.658 26.1299C158.23 26.1299 155.527 24.8638 153.527 22.5819V34.895H147.576V0H153.242V3.6131C154.226 2.40873 155.432 1.50546 156.861 0.903275C158.321 0.301092 159.924 0 161.67 0ZM161.003 20.918C163.193 20.918 164.988 20.189 166.383 18.7311C167.812 17.2732 168.526 15.3557 168.526 12.9786C168.526 10.6016 167.812 8.68412 166.383 7.2262C164.988 5.76828 163.193 5.03933 161.003 5.03933C159.575 5.03933 158.289 5.37211 157.146 6.03768C156.004 6.67156 155.099 7.59068 154.432 8.79505C153.766 9.99942 153.432 11.3939 153.432 12.9786C153.432 14.5633 153.766 15.9579 154.432 17.1622C155.099 18.3666 156.004 19.3016 157.146 19.9671C158.289 20.601 159.575 20.918 161.003 20.918ZM178.246 26.1692C177.707 26.1692 177.245 25.9869 176.865 25.6225C176.485 25.2421 176.293 24.7667 176.293 24.1962C176.293 23.6099 176.477 23.1345 176.842 22.77C177.222 22.4055 177.69 22.2233 178.246 22.2233C178.801 22.2233 179.262 22.4055 179.626 22.77C180.008 23.1345 180.198 23.6099 180.198 24.1962C180.198 24.7667 180.008 25.2421 179.626 25.6225C179.246 25.9869 178.786 26.1692 178.246 26.1692ZM188.463 26.1216C187.225 26.1216 186.114 25.8523 185.13 25.3135C184.161 24.7747 183.401 24.0219 182.845 23.0553C182.29 22.0728 182.012 20.9714 182.012 19.7512C182.012 18.531 182.29 17.4375 182.845 16.4709C183.401 15.5042 184.161 14.7515 185.13 14.2127C186.114 13.6739 187.225 13.4045 188.463 13.4045C189.543 13.4045 190.503 13.6184 191.343 14.0463C192.201 14.4583 192.876 15.0684 193.367 15.8766L192.105 16.7323C191.694 16.1143 191.17 15.6547 190.535 15.3537C189.9 15.0367 189.209 14.8782 188.463 14.8782C187.559 14.8782 186.74 15.0843 186.011 15.4963C185.297 15.8924 184.733 16.4629 184.32 17.2077C183.923 17.9526 183.725 18.8004 183.725 19.7512C183.725 20.7178 183.923 21.5736 184.32 22.3184C184.733 23.0473 185.297 23.6178 186.011 24.0299C186.74 24.426 187.559 24.6241 188.463 24.6241C189.209 24.6241 189.9 24.4736 190.535 24.1725C191.17 23.8714 191.694 23.4118 192.105 22.7938L193.367 23.6495C192.876 24.4577 192.201 25.0758 191.343 25.5036C190.487 25.9156 189.526 26.1216 188.463 26.1216ZM201.359 26.1216C200.154 26.1216 199.066 25.8523 198.097 25.3135C197.13 24.7588 196.368 23.9982 195.812 23.0315C195.257 22.0648 194.979 20.9714 194.979 19.7512C194.979 18.531 195.257 17.4375 195.812 16.4709C196.368 15.5042 197.13 14.7515 198.097 14.2127C199.066 13.6739 200.154 13.4045 201.359 13.4045C202.566 13.4045 203.652 13.6739 204.621 14.2127C205.59 14.7515 206.344 15.5042 206.883 16.4709C207.438 17.4375 207.716 18.531 207.716 19.7512C207.716 20.9714 207.438 22.0648 206.883 23.0315C206.344 23.9982 205.59 24.7588 204.621 25.3135C203.652 25.8523 202.566 26.1216 201.359 26.1216ZM201.359 24.6241C202.248 24.6241 203.042 24.426 203.74 24.0299C204.454 23.6178 205.009 23.0394 205.406 22.2946C205.803 21.5498 206.001 20.702 206.001 19.7512C206.001 18.8004 205.803 17.9526 205.406 17.2077C205.009 16.4629 204.454 15.8924 203.74 15.4963C203.042 15.0843 202.248 14.8782 201.359 14.8782C200.471 14.8782 199.669 15.0843 198.955 15.4963C198.256 15.8924 197.7 16.4629 197.288 17.2077C196.892 17.9526 196.693 18.8004 196.693 19.7512C196.693 20.702 196.892 21.5498 197.288 22.2946C197.7 23.0394 198.256 23.6178 198.955 24.0299C199.669 24.426 200.471 24.6241 201.359 24.6241Z" fill="#414141"/>
<path d="M229.642 14.7863C228.753 13.8813 227.522 13.4288 225.951 13.4288C224.84 13.4288 223.847 13.667 222.974 14.1433C222.116 14.6037 221.458 15.2467 220.998 16.0723C220.616 15.1991 220.037 14.5402 219.258 14.0956C218.497 13.6511 217.591 13.4288 216.544 13.4288C215.512 13.4288 214.599 13.6352 213.806 14.048C213.012 14.4608 212.392 15.0482 211.948 15.8103V13.5241H210.328V26.1299H212.019V19.4777C212.019 18.0647 212.392 16.9613 213.139 16.1675C213.9 15.3578 214.925 14.953 216.21 14.953C217.369 14.953 218.259 15.2943 218.878 15.977C219.513 16.6597 219.83 17.652 219.83 18.9538V26.1299H221.52V19.4777C221.52 18.0647 221.894 16.9613 222.64 16.1675C223.386 15.3578 224.411 14.953 225.713 14.953C226.856 14.953 227.737 15.2943 228.356 15.977C228.991 16.6597 229.308 17.652 229.308 18.9538V26.1299H231V18.7871C231 17.0248 230.547 15.6912 229.642 14.7863Z" fill="#414141"/>
<path fill-rule="evenodd" clip-rule="evenodd" d="M86.2013 0H92.4468V26.0787H86.501V22.4994C85.4684 23.7096 84.186 24.6172 82.6538 25.2223C81.1549 25.8273 79.4894 26.1299 77.6574 26.1299C75.0592 26.1299 72.7275 25.5885 70.6624 24.5057C68.6305 23.4229 67.0316 21.8943 65.8658 19.9198C64.7333 17.9454 64.167 15.6524 64.167 13.0411C64.167 10.4297 64.7333 8.15265 65.8658 6.21002C67.0316 4.23556 68.6305 2.70693 70.6624 1.62416C72.7275 0.541387 75.0592 0 77.6574 0C79.3894 0 80.9717 0.286616 82.404 0.859849C83.8696 1.43308 85.1354 2.27701 86.2013 3.39163V0ZM84.0528 18.8212C82.5539 20.2861 80.6552 21.0185 78.3569 21.0185C76.0585 21.0185 74.1598 20.2861 72.6609 18.8212C71.1953 17.3562 70.4625 15.4295 70.4625 13.0411C70.4625 10.6526 71.1953 8.72588 72.6609 7.26095C74.1598 5.79602 76.0585 5.06356 78.3569 5.06356C80.6552 5.06356 82.5539 5.79602 84.0528 7.26095C85.5517 8.72588 86.3012 10.6526 86.3012 13.0411C86.3012 15.4295 85.5517 17.3562 84.0528 18.8212Z" fill="url(#paint0_linear_2092_2078)"/>
<path d="M59.2056 20.2455V0H56.2288H54.252C53.6997 0 53.252 0.447715 53.252 1V26.0606C53.252 26.0989 53.2829 26.1299 53.3212 26.1299C56.5711 26.1299 59.2056 23.4953 59.2056 20.2455Z" fill="#414141"/>
<defs>
<linearGradient id="paint0_linear_2092_2078" x1="78.3069" y1="7.46397" x2="78.3069" y2="26.1299" gradientUnits="userSpaceOnUse">
<stop stop-color="#83B5FF"/>
<stop offset="1" stop-color="#4580D6"/>
</linearGradient>
</defs>
</svg>
